<mxfile host="app.diagrams.net" modified="2022-04-26T08:47:46.861Z" agent="5.0 (Windows NT 10.0; Win64; x64) AppleWebKit/537.36 (KHTML, like Gecko) Chrome/100.0.4896.127 Safari/537.36" etag="qLY8IB8VPkcKN1ZOTrTb" version="17.4.6" type="github">
  <diagram id="C5RBs43oDa-KdzZeNtuy" name="Page-1">
    <mxGraphModel dx="1317" dy="573" grid="1" gridSize="10" guides="1" tooltips="1" connect="1" arrows="1" fold="1" page="1" pageScale="1" pageWidth="827" pageHeight="1169" math="0" shadow="0">
      <root>
        <mxCell id="WIyWlLk6GJQsqaUBKTNV-0" />
        <mxCell id="WIyWlLk6GJQsqaUBKTNV-1" parent="WIyWlLk6GJQsqaUBKTNV-0" />
        <mxCell id="YwGi7CWrsv01K30EgNa7-19" value="" style="edgeStyle=orthogonalEdgeStyle;rounded=0;orthogonalLoop=1;jettySize=auto;html=1;" edge="1" parent="WIyWlLk6GJQsqaUBKTNV-1" source="WIyWlLk6GJQsqaUBKTNV-3" target="YwGi7CWrsv01K30EgNa7-0">
          <mxGeometry relative="1" as="geometry" />
        </mxCell>
        <mxCell id="YwGi7CWrsv01K30EgNa7-20" style="edgeStyle=orthogonalEdgeStyle;rounded=0;orthogonalLoop=1;jettySize=auto;html=1;" edge="1" parent="WIyWlLk6GJQsqaUBKTNV-1" source="WIyWlLk6GJQsqaUBKTNV-3" target="WIyWlLk6GJQsqaUBKTNV-7">
          <mxGeometry relative="1" as="geometry" />
        </mxCell>
        <mxCell id="YwGi7CWrsv01K30EgNa7-21" style="edgeStyle=orthogonalEdgeStyle;rounded=0;orthogonalLoop=1;jettySize=auto;html=1;" edge="1" parent="WIyWlLk6GJQsqaUBKTNV-1" source="WIyWlLk6GJQsqaUBKTNV-3" target="YwGi7CWrsv01K30EgNa7-1">
          <mxGeometry relative="1" as="geometry" />
        </mxCell>
        <mxCell id="YwGi7CWrsv01K30EgNa7-22" style="edgeStyle=orthogonalEdgeStyle;rounded=0;orthogonalLoop=1;jettySize=auto;html=1;" edge="1" parent="WIyWlLk6GJQsqaUBKTNV-1" source="WIyWlLk6GJQsqaUBKTNV-3" target="YwGi7CWrsv01K30EgNa7-2">
          <mxGeometry relative="1" as="geometry" />
        </mxCell>
        <mxCell id="WIyWlLk6GJQsqaUBKTNV-3" value="WANKEL ENGINE" style="rounded=1;whiteSpace=wrap;html=1;fontSize=12;glass=0;strokeWidth=1;shadow=0;" parent="WIyWlLk6GJQsqaUBKTNV-1" vertex="1">
          <mxGeometry x="220" y="80" width="510" height="40" as="geometry" />
        </mxCell>
        <mxCell id="YwGi7CWrsv01K30EgNa7-23" value="" style="edgeStyle=orthogonalEdgeStyle;rounded=0;orthogonalLoop=1;jettySize=auto;html=1;" edge="1" parent="WIyWlLk6GJQsqaUBKTNV-1" source="WIyWlLk6GJQsqaUBKTNV-7" target="WIyWlLk6GJQsqaUBKTNV-12">
          <mxGeometry relative="1" as="geometry" />
        </mxCell>
        <mxCell id="WIyWlLk6GJQsqaUBKTNV-7" value="Input" style="rounded=1;whiteSpace=wrap;html=1;fontSize=12;glass=0;strokeWidth=1;shadow=0;" parent="WIyWlLk6GJQsqaUBKTNV-1" vertex="1">
          <mxGeometry x="160" y="170" width="120" height="40" as="geometry" />
        </mxCell>
        <mxCell id="YwGi7CWrsv01K30EgNa7-24" value="" style="edgeStyle=orthogonalEdgeStyle;rounded=0;orthogonalLoop=1;jettySize=auto;html=1;" edge="1" parent="WIyWlLk6GJQsqaUBKTNV-1" source="WIyWlLk6GJQsqaUBKTNV-12" target="YwGi7CWrsv01K30EgNa7-3">
          <mxGeometry relative="1" as="geometry" />
        </mxCell>
        <mxCell id="WIyWlLk6GJQsqaUBKTNV-12" value="Gasoline" style="rounded=1;whiteSpace=wrap;html=1;fontSize=12;glass=0;strokeWidth=1;shadow=0;" parent="WIyWlLk6GJQsqaUBKTNV-1" vertex="1">
          <mxGeometry x="160" y="250" width="120" height="40" as="geometry" />
        </mxCell>
        <mxCell id="YwGi7CWrsv01K30EgNa7-27" value="" style="edgeStyle=orthogonalEdgeStyle;rounded=0;orthogonalLoop=1;jettySize=auto;html=1;" edge="1" parent="WIyWlLk6GJQsqaUBKTNV-1" source="YwGi7CWrsv01K30EgNa7-0" target="YwGi7CWrsv01K30EgNa7-6">
          <mxGeometry relative="1" as="geometry" />
        </mxCell>
        <mxCell id="YwGi7CWrsv01K30EgNa7-0" value="Electricity" style="rounded=1;whiteSpace=wrap;html=1;fontSize=12;glass=0;strokeWidth=1;shadow=0;" vertex="1" parent="WIyWlLk6GJQsqaUBKTNV-1">
          <mxGeometry x="330" y="170" width="120" height="40" as="geometry" />
        </mxCell>
        <mxCell id="YwGi7CWrsv01K30EgNa7-30" value="" style="edgeStyle=orthogonalEdgeStyle;rounded=0;orthogonalLoop=1;jettySize=auto;html=1;" edge="1" parent="WIyWlLk6GJQsqaUBKTNV-1" source="YwGi7CWrsv01K30EgNa7-1" target="YwGi7CWrsv01K30EgNa7-9">
          <mxGeometry relative="1" as="geometry" />
        </mxCell>
        <mxCell id="YwGi7CWrsv01K30EgNa7-1" value="Convert Electricity" style="rounded=1;whiteSpace=wrap;html=1;fontSize=12;glass=0;strokeWidth=1;shadow=0;" vertex="1" parent="WIyWlLk6GJQsqaUBKTNV-1">
          <mxGeometry x="500" y="170" width="120" height="40" as="geometry" />
        </mxCell>
        <mxCell id="YwGi7CWrsv01K30EgNa7-32" value="" style="edgeStyle=orthogonalEdgeStyle;rounded=0;orthogonalLoop=1;jettySize=auto;html=1;" edge="1" parent="WIyWlLk6GJQsqaUBKTNV-1" source="YwGi7CWrsv01K30EgNa7-2" target="YwGi7CWrsv01K30EgNa7-11">
          <mxGeometry relative="1" as="geometry" />
        </mxCell>
        <mxCell id="YwGi7CWrsv01K30EgNa7-2" value="Vibration" style="rounded=1;whiteSpace=wrap;html=1;fontSize=12;glass=0;strokeWidth=1;shadow=0;" vertex="1" parent="WIyWlLk6GJQsqaUBKTNV-1">
          <mxGeometry x="670" y="170" width="120" height="40" as="geometry" />
        </mxCell>
        <mxCell id="YwGi7CWrsv01K30EgNa7-25" value="" style="edgeStyle=orthogonalEdgeStyle;rounded=0;orthogonalLoop=1;jettySize=auto;html=1;" edge="1" parent="WIyWlLk6GJQsqaUBKTNV-1" source="YwGi7CWrsv01K30EgNa7-3" target="YwGi7CWrsv01K30EgNa7-4">
          <mxGeometry relative="1" as="geometry" />
        </mxCell>
        <mxCell id="YwGi7CWrsv01K30EgNa7-3" value="Fuel" style="rounded=1;whiteSpace=wrap;html=1;fontSize=12;glass=0;strokeWidth=1;shadow=0;" vertex="1" parent="WIyWlLk6GJQsqaUBKTNV-1">
          <mxGeometry x="160" y="330" width="120" height="40" as="geometry" />
        </mxCell>
        <mxCell id="YwGi7CWrsv01K30EgNa7-26" value="" style="edgeStyle=orthogonalEdgeStyle;rounded=0;orthogonalLoop=1;jettySize=auto;html=1;" edge="1" parent="WIyWlLk6GJQsqaUBKTNV-1" source="YwGi7CWrsv01K30EgNa7-4" target="YwGi7CWrsv01K30EgNa7-5">
          <mxGeometry relative="1" as="geometry" />
        </mxCell>
        <mxCell id="YwGi7CWrsv01K30EgNa7-4" value="Air" style="rounded=1;whiteSpace=wrap;html=1;fontSize=12;glass=0;strokeWidth=1;shadow=0;" vertex="1" parent="WIyWlLk6GJQsqaUBKTNV-1">
          <mxGeometry x="160" y="410" width="120" height="40" as="geometry" />
        </mxCell>
        <mxCell id="YwGi7CWrsv01K30EgNa7-5" value="Accept Fuel" style="rounded=1;whiteSpace=wrap;html=1;fontSize=12;glass=0;strokeWidth=1;shadow=0;" vertex="1" parent="WIyWlLk6GJQsqaUBKTNV-1">
          <mxGeometry x="160" y="490" width="120" height="40" as="geometry" />
        </mxCell>
        <mxCell id="YwGi7CWrsv01K30EgNa7-28" value="" style="edgeStyle=orthogonalEdgeStyle;rounded=0;orthogonalLoop=1;jettySize=auto;html=1;" edge="1" parent="WIyWlLk6GJQsqaUBKTNV-1" source="YwGi7CWrsv01K30EgNa7-6" target="YwGi7CWrsv01K30EgNa7-7">
          <mxGeometry relative="1" as="geometry" />
        </mxCell>
        <mxCell id="YwGi7CWrsv01K30EgNa7-6" value="Supply Power" style="rounded=1;whiteSpace=wrap;html=1;fontSize=12;glass=0;strokeWidth=1;shadow=0;" vertex="1" parent="WIyWlLk6GJQsqaUBKTNV-1">
          <mxGeometry x="330" y="250" width="120" height="40" as="geometry" />
        </mxCell>
        <mxCell id="YwGi7CWrsv01K30EgNa7-29" value="" style="edgeStyle=orthogonalEdgeStyle;rounded=0;orthogonalLoop=1;jettySize=auto;html=1;" edge="1" parent="WIyWlLk6GJQsqaUBKTNV-1" source="YwGi7CWrsv01K30EgNa7-7" target="YwGi7CWrsv01K30EgNa7-8">
          <mxGeometry relative="1" as="geometry" />
        </mxCell>
        <mxCell id="YwGi7CWrsv01K30EgNa7-7" value="Actuate Power" style="rounded=1;whiteSpace=wrap;html=1;fontSize=12;glass=0;strokeWidth=1;shadow=0;" vertex="1" parent="WIyWlLk6GJQsqaUBKTNV-1">
          <mxGeometry x="330" y="330" width="120" height="40" as="geometry" />
        </mxCell>
        <mxCell id="YwGi7CWrsv01K30EgNa7-8" value="Switch On/Off" style="rounded=1;whiteSpace=wrap;html=1;fontSize=12;glass=0;strokeWidth=1;shadow=0;" vertex="1" parent="WIyWlLk6GJQsqaUBKTNV-1">
          <mxGeometry x="330" y="410" width="120" height="40" as="geometry" />
        </mxCell>
        <mxCell id="YwGi7CWrsv01K30EgNa7-31" value="" style="edgeStyle=orthogonalEdgeStyle;rounded=0;orthogonalLoop=1;jettySize=auto;html=1;" edge="1" parent="WIyWlLk6GJQsqaUBKTNV-1" source="YwGi7CWrsv01K30EgNa7-9" target="YwGi7CWrsv01K30EgNa7-10">
          <mxGeometry relative="1" as="geometry" />
        </mxCell>
        <mxCell id="YwGi7CWrsv01K30EgNa7-9" value="Rotary Motion" style="rounded=1;whiteSpace=wrap;html=1;fontSize=12;glass=0;strokeWidth=1;shadow=0;" vertex="1" parent="WIyWlLk6GJQsqaUBKTNV-1">
          <mxGeometry x="500" y="250" width="120" height="40" as="geometry" />
        </mxCell>
        <mxCell id="YwGi7CWrsv01K30EgNa7-10" value="Transmit Power" style="rounded=1;whiteSpace=wrap;html=1;fontSize=12;glass=0;strokeWidth=1;shadow=0;" vertex="1" parent="WIyWlLk6GJQsqaUBKTNV-1">
          <mxGeometry x="500" y="330" width="120" height="40" as="geometry" />
        </mxCell>
        <mxCell id="YwGi7CWrsv01K30EgNa7-33" value="" style="edgeStyle=orthogonalEdgeStyle;rounded=0;orthogonalLoop=1;jettySize=auto;html=1;" edge="1" parent="WIyWlLk6GJQsqaUBKTNV-1" source="YwGi7CWrsv01K30EgNa7-11" target="YwGi7CWrsv01K30EgNa7-12">
          <mxGeometry relative="1" as="geometry" />
        </mxCell>
        <mxCell id="YwGi7CWrsv01K30EgNa7-11" value="Initiate Vibration" style="rounded=1;whiteSpace=wrap;html=1;fontSize=12;glass=0;strokeWidth=1;shadow=0;" vertex="1" parent="WIyWlLk6GJQsqaUBKTNV-1">
          <mxGeometry x="670" y="250" width="120" height="40" as="geometry" />
        </mxCell>
        <mxCell id="YwGi7CWrsv01K30EgNa7-34" value="" style="edgeStyle=orthogonalEdgeStyle;rounded=0;orthogonalLoop=1;jettySize=auto;html=1;" edge="1" parent="WIyWlLk6GJQsqaUBKTNV-1" source="YwGi7CWrsv01K30EgNa7-12" target="YwGi7CWrsv01K30EgNa7-13">
          <mxGeometry relative="1" as="geometry" />
        </mxCell>
        <mxCell id="YwGi7CWrsv01K30EgNa7-12" value="Control Vibration" style="rounded=1;whiteSpace=wrap;html=1;fontSize=12;glass=0;strokeWidth=1;shadow=0;" vertex="1" parent="WIyWlLk6GJQsqaUBKTNV-1">
          <mxGeometry x="670" y="330" width="120" height="40" as="geometry" />
        </mxCell>
        <mxCell id="YwGi7CWrsv01K30EgNa7-35" value="" style="edgeStyle=orthogonalEdgeStyle;rounded=0;orthogonalLoop=1;jettySize=auto;html=1;" edge="1" parent="WIyWlLk6GJQsqaUBKTNV-1" source="YwGi7CWrsv01K30EgNa7-13" target="YwGi7CWrsv01K30EgNa7-15">
          <mxGeometry relative="1" as="geometry" />
        </mxCell>
        <mxCell id="YwGi7CWrsv01K30EgNa7-13" value="Generate Noise" style="rounded=1;whiteSpace=wrap;html=1;fontSize=12;glass=0;strokeWidth=1;shadow=0;" vertex="1" parent="WIyWlLk6GJQsqaUBKTNV-1">
          <mxGeometry x="670" y="410" width="120" height="40" as="geometry" />
        </mxCell>
        <mxCell id="YwGi7CWrsv01K30EgNa7-14" value="Remove Heat" style="rounded=1;whiteSpace=wrap;html=1;fontSize=12;glass=0;strokeWidth=1;shadow=0;" vertex="1" parent="WIyWlLk6GJQsqaUBKTNV-1">
          <mxGeometry x="670" y="490" width="120" height="40" as="geometry" />
        </mxCell>
        <mxCell id="YwGi7CWrsv01K30EgNa7-15" value="Capture vapour" style="rounded=1;whiteSpace=wrap;html=1;fontSize=12;glass=0;strokeWidth=1;shadow=0;" vertex="1" parent="WIyWlLk6GJQsqaUBKTNV-1">
          <mxGeometry x="670" y="565" width="120" height="40" as="geometry" />
        </mxCell>
      </root>
    </mxGraphModel>
  </diagram>
</mxfile>
